HIERARCHY
ROOT Hips
{
  OFFSET 90.7885 88.945 -76.2838
  CHANNELS 6 Xposition Yposition Zposition Zrotation Xrotation Yrotation
  JOINT LeftUpLeg
  {
    OFFSET 8.64259 1.95398 -2.38835
    CHANNELS 3 Zrotation Xrotation Yrotation
    JOINT LeftLeg
    {
      OFFSET 43.7702 0 0
      CHANNELS 3 Zrotation Xrotation Yrotation
      JOINT LeftFoot
      {
        OFFSET 40.6238 0 0
        CHANNELS 3 Zrotation Xrotation Yrotation
        JOINT LeftToeBase
        {
          OFFSET 12.7242 0 0
          CHANNELS 3 Zrotation Xrotation Yrotation
          End Site
          {
            OFFSET 0 0 0
          }
        }
      }
    }
  }
  JOINT RightUpLeg
  {
    OFFSET -8.2249 1.95398 -2.59336
    CHANNELS 3 Zrotation Xrotation Yrotation
    JOINT RightLeg
    {
      OFFSET 43.5653 0 0
      CHANNELS 3 Zrotation Xrotation Yrotation
      JOINT RightFoot
      {
        OFFSET 40.6238 0 0
        CHANNELS 3 Zrotation Xrotation Yrotation
        JOINT RightToeBase
        {
          OFFSET 12.7242 0 0
          CHANNELS 3 Zrotation Xrotation Yrotation
          End Site
          {
            OFFSET 0 0 0
          }
        }
      }
    }
  }
  JOINT Spine
  {
    OFFSET 0.165834 0.87714 6.61349
    CHANNELS 3 Zrotation Xrotation Yrotation
    JOINT Spine1
    {
      OFFSET 7.38963 1.71661e-005 0
      CHANNELS 3 Zrotation Xrotation Yrotation
      JOINT Spine2
      {
        OFFSET 11.9445 1.14441e-005 0
        CHANNELS 3 Zrotation Xrotation Yrotation
        JOINT Spine3
        {
          OFFSET 14.7254 4.19617e-005 0
          CHANNELS 3 Zrotation Xrotation Yrotation
          JOINT Spine4
          {
            OFFSET 10.9679 0 0
            CHANNELS 3 Zrotation Xrotation Yrotation
            JOINT RightShoulder
            {
              OFFSET 2.46616 -1.6653 3.69651
              CHANNELS 3 Zrotation Xrotation Yrotation
              JOINT RightArm
              {
                OFFSET 13.0012 0 0
                CHANNELS 3 Zrotation Xrotation Yrotation
                JOINT RightForeArm
                {
                  OFFSET 28.7848 1.52588e-005 0
                  CHANNELS 3 Zrotation Xrotation Yrotation
                  JOINT RightHand
                  {
                    OFFSET 26.5688 1.52588e-005 0
                    CHANNELS 3 Zrotation Xrotation Yrotation
                    End Site
                    {
                      OFFSET 0 0 0
                    }
                  }
                }
              }
            }
            JOINT LeftShoulder
            {
              OFFSET 2.38034 -1.29275 -3.7523
              CHANNELS 3 Zrotation Xrotation Yrotation
              JOINT LeftArm
              {
                OFFSET 16.3182 6.10352e-005 0
                CHANNELS 3 Zrotation Xrotation Yrotation
                JOINT LeftForeArm
                {
                  OFFSET 27.0901 0 0
                  CHANNELS 3 Zrotation Xrotation Yrotation
                  JOINT LeftHand
                  {
                    OFFSET 24.5451 1.52588e-005 0
                    CHANNELS 3 Zrotation Xrotation Yrotation
                    End Site
                    {
                      OFFSET 0 0 0
                    }
                  }
                }
              }
            }
            JOINT Neck
            {
              OFFSET 5.0226 -0.0266342 0
              CHANNELS 3 Zrotation Xrotation Yrotation
              JOINT Head
              {
                OFFSET 6.69363 2.86102e-005 0
                CHANNELS 3 Zrotation Xrotation Yrotation
                End Site
                {
                  OFFSET 0 0 0
                }
              }
            }
          }
        }
      }
    }
  }
}
MOTION
Frames:	15
Frame Time:	0.0416667
-227.584 65.5239 -230.707 -17.3523 -53.1038 -18.3633 -47.681 59.9719 -4.17757 -93.2111 17.4492 -15.074 81.0867 11.2955 11.659 23.7087 16.1181 -20.1054 -167.818 55.722 53.2561 -79.1637 -2.16689 -4.81063 111.089 -17.1217 17.9042 42.522 3.64612 -16.9515 0.266704 11.7277 -90.9288 3.41614 0.163027 -1.81679 -8.25614 0.0829306 -1.8222 -30.7821 0.701426 -1.68387 -10.7694 0.701432 -1.68387 83.5634 -22.5091 -123.857 -13.7335 13.5447 -37.5718 2.4546 -39.0175 -10.079 -39.925 -5.92425 6.26976 -96.3632 -29.0811 60.9551 3.20156 -15.0244 -67.988 10.0237 28.0669 -1.4215 9.25907 0.38137 0.466151 45.6701 -1.11135 -0.138276 -4.9491 -1.07445 3.2055 
-233.92 63.1583 -234.474 -7.59019 -52.0087 -11.054 -41.4546 56.2211 -12.873 -95.5095 8.29529 -15.147 80.4838 10.5319 9.24485 21.1962 9.19716 -10.4308 -156.8 61.027 46.1435 -92.6275 0.536147 -3.81515 112.002 -18.1636 16.1213 46.7382 2.71279 -17.3999 0.44826 11.9337 -90.9443 3.00681 0.522783 -1.84149 -8.66539 0.441236 -1.86272 -31.193 1.05199 -1.59933 -11.1804 1.05199 -1.59936 82.6385 -21.6388 -126.416 -14.6347 22.1891 -31.153 0.136798 -31.8623 -12.937 -50.1874 -6.73641 6.3183 -99.2999 -34.4217 58.4464 2.20179 -18.2018 -66.397 17.6001 32.0755 -12.6746 12.9516 0.711641 1.47914 45.5652 1.93789 6.00927 -1.39178 -1.41543 2.12579 
-239.191 61.0009 -236.075 2.41471 -51.2788 -4.69122 -39.0784 54.5231 -16.5704 -94.2522 12.0105 -14.8154 76.984 8.377 7.28255 22.4471 12.3009 -14.7596 -147.164 61.5125 38.4032 -102.338 -1.89762 -3.14898 113.184 -20.7059 11.3276 50.0036 1.70364 -16.6515 0.443705 12.2117 -90.8605 2.45121 0.550641 -1.6709 -9.22072 0.476574 -1.69353 -31.7501 1.02731 -1.42825 -11.7375 1.02731 -1.42825 83.094 -21.8994 -125.272 -15.0399 25.3413 -27.9253 -0.523087 -24.7844 -13.7594 -45.6232 -3.56686 0.471005 -101.088 -35.9196 56.2104 6.76435 -19.0046 -64.2924 17.0224 23.6423 -16.2788 16.8283 0.805926 0.926511 41.3044 3.05231 12.2611 4.76299 -3.21041 -0.128906 
-243.609 59.2942 -236.128 7.57871 -49.2014 -1.29652 -36.196 52.1064 -16.1162 -92.4951 18.4076 -16.7 75.0791 7.48905 8.20151 19.5941 12.8979 -14.231 -141.438 63.5603 36.9558 -108.935 7.24716 -2.22479 113.25 -20.6859 10.8586 52.7958 1.19467 -17.5258 0.836761 12.4862 -90.8141 1.9073 1.35713 -1.55629 -9.76393 1.28734 -1.6145 -32.3008 1.76209 -1.07648 -12.2881 1.76209 -1.07646 84.4544 -23.139 -121.586 -10.0883 30.3642 -27.575 -3.16494 -13.0648 -19.021 -66.6165 -7.75147 6.13507 -101.631 -32.4429 53.4132 4.66066 -22.2175 -62.688 24.35 23.4693 -28.2933 18.4857 0.676274 -0.20945 39.2901 2.3545 15.1071 9.45026 -4.80065 1.39546 
-246.575 58.3385 -235.374 12.1978 -48.1209 3.96187 -34.023 51.679 -17.1564 -91.0868 23.2678 -17.6731 72.7756 6.33135 8.79682 20.6765 8.0323 -8.78386 -145.528 65.6761 42.894 -112.511 7.02113 -1.58633 110.799 -22.4977 5.8202 55.1791 0.666519 -17.9108 1.02112 12.9526 -91.038 0.977786 1.64636 -1.9639 -10.6937 1.55835 -2.03443 -33.2307 2.16042 -1.37836 -13.218 2.16041 -1.37834 85.3711 -26.3891 -117.736 -5.00508 39.7416 -28.5704 -12.6745 -25.0102 -34.277 -58.5633 -7.14258 5.5362 -99.6701 -25.4796 52.7488 1.59254 -26.9645 -59.6407 27.1676 18.2075 -35.9675 20.6949 0.801139 0.00506802 32.018 -0.181686 7.49371 17.1082 -1.49835 10.016 
-247.832 58.5543 -234.079 14.7223 -49.2765 8.6296 -33.7234 53.1191 -16.9928 -91.0125 25.3962 -16.9823 72.2001 6.09167 9.21974 20.3495 9.44134 -10.4183 -157.383 64.7025 54.6979 -111.95 6.08856 -1.46294 111.145 -22.7194 5.69143 56.1176 0.130027 -16.1695 1.39585 13.4514 -91.2178 -0.014893 2.33407 -2.25193 -11.6859 2.23271 -2.35248 -34.2302 2.90284 -1.44622 -14.2175 2.90284 -1.44621 86.5429 -26.6764 -115.2 -6.8935 38.7437 -26.6754 -6.47574 -13.5538 -31.2663 -70.6282 -5.55459 2.02633 -97.0761 -19.5919 53.9402 -1.59775 -28.7139 -61.7476 28.0736 18.1345 -37.2132 21.9609 1.15175 1.37204 29.2951 -1.27009 -1.26714 17.756 2.38825 16.6771 
-247.412 60.1385 -232.353 16.1337 -51.0002 12.8384 -34.7188 56.4754 -18.1783 -92.1938 23.2677 -14.3142 73.5135 6.58368 7.58456 17.4374 15.1585 -16.0156 -168.152 60.2063 65.626 -107.023 3.06321 -1.69091 110.973 -23.6526 3.67886 55.7458 -0.0246356 -14.7774 1.80365 13.7162 -91.388 -0.53745 3.08894 -2.52318 -12.2074 2.97494 -2.65667 -34.7638 3.70425 -1.47759 -14.7511 3.70427 -1.4776 86.4378 -26.1634 -115.689 -8.56001 36.3705 -24.427 -3.85575 -7.43908 -25.6262 -70.013 -6.94093 4.54187 -94.9054 -15.9313 56.0131 -1.32805 -25.9485 -66.5886 26.3268 20.6278 -32.2362 21.3191 1.37146 2.59216 33.4866 -0.133075 0.240939 12.828 2.03408 16.3233 
-245.764 62.8709 -230.029 16.9314 -52.6657 16.5646 -37.8167 61.5345 -18.9859 -92.6721 19.8361 -11.6612 76.1003 7.7753 6.77302 21.8279 12.2332 -14.4456 -174.204 53.1994 72.6298 -98.6346 5.34187 -2.12785 111.734 -22.3353 7.01741 55.8724 -0.231513 -13.7445 2.07099 13.7272 -91.4484 -0.554914 3.5998 -2.61082 -12.2238 3.48145 -2.76675 -34.7913 4.21776 -1.40712 -14.7787 4.21778 -1.40712 84.6322 -25.4301 -119.788 -17.6748 24.0479 -21.5058 1.56016 2.95462 -9.28461 -58.688 -5.90807 5.59899 -93.1272 -14.1981 58.8348 7.34955 -22.4342 -71.7734 21.1758 29.4517 -21.6561 13.6458 0.970355 2.72358 38.2638 2.01889 3.18493 6.88383 1.52667 13.6797 
-242.758 66.253 -226.73 20.3585 -53.3631 20.8977 -50.1278 66.9126 -12.6108 -91.7293 16.2448 -10.1606 79.4876 8.90661 4.00408 28.2366 9.32178 -13.2022 -178.795 44.4317 74.7466 -87.2787 8.48896 -2.7333 113.235 -19.9931 12.9568 53.8529 0.309534 -14.225 2.03187 13.5833 -91.4035 -0.267956 3.53579 -2.54145 -11.9369 3.42056 -2.69462 -34.5033 4.13588 -1.36023 -14.4907 4.13589 -1.36024 84.6311 -21.975 -121.984 -22.5881 8.68277 -19.2665 7.45671 -0.17065 0.40317 -33.7625 -1.9676 1.44461 -90.9054 -13.4658 63.6149 15.1539 -21.5696 -77.7469 10.5782 31.5425 -8.47317 -3.86828 0.207706 -9.98473 43.1674 4.00138 5.7607 0.986799 1.04635 10.0021 
-239.104 69.3608 -221.888 19.319 -52.5384 22.3148 -61.9055 71.0318 -4.18966 -90.4573 21.0272 -9.19486 84.2813 10.7066 1.66894 23.1295 10.0075 -12.0567 177.382 35.9131 77.7074 -72.3404 1.37948 -3.07877 110.082 -20.2306 10.5727 52.3376 0.304077 -12.6775 2.02893 13.1549 -91.1956 0.587098 3.60037 -2.17906 -11.081 3.501 -2.33549 -33.6522 4.0886 -0.994953 -13.6395 4.0886 -0.994947 84.8533 -20.1463 -122.753 -20.4701 5.5587 -16.6781 9.99122 -24.3928 0.0236404 -10.4589 -0.925764 -12.6695 -90.9652 -15.3924 64.6628 17.7294 -22.6731 -75.7919 8.4157 35.4935 -5.71885 -12.0911 0.837027 -15.7121 48.3965 6.59188 9.49003 -3.46027 0.63874 5.67126 
-233.522 73.2982 -215.39 22.0646 -50.702 24.7629 -93.3723 72.8364 20.666 -86.8156 16.6813 -9.83728 86.1902 11.1104 -0.118328 27.1068 11.1054 -15.2349 172.366 26.4523 76.5965 -55.5755 -7.92598 -3.02122 95.3532 -17.6094 1.89346 55.7161 -1.43733 -6.47382 1.47569 12.6757 -90.7689 1.53384 2.65198 -1.4227 -10.1353 2.58679 -1.53808 -32.6908 2.95686 -0.559358 -12.6781 2.95685 -0.559336 86.736 -16.8531 -120.859 -11.8486 0.373145 -19.6889 13.4649 -28.7523 0.00828461 -0.646574 -1.51074 -16.2964 -90.2692 -19.729 68.5626 24.5952 -20.4628 -72.2289 8.18515 39.0124 -9.62728 -11.077 0.79024 -15.9033 54.1162 9.27068 10.9624 -8.38739 1.58012 2.05601 
-228.727 76.3827 -207.475 17.8521 -49.8862 25.1246 -120.22 71.6444 47.5476 -83.4846 13.3946 -9.27567 94.8091 14.4557 -1.75767 28.985 10.2699 -14.9269 177.66 27.1479 79.2998 -57.1348 -16.325 -4.97046 70.996 -5.94605 -0.431044 50.3758 -1.76862 -1.56889 1.45243 11.7936 -90.3295 3.2909 2.77045 -0.625576 -8.37731 2.74023 -0.746984 -30.936 2.83027 0.236644 -10.9233 2.83027 0.236649 86.7639 -19.7208 -118.814 0.495919 -4.78549 -20.2887 8.65244 -38.1304 -5.90206 1.07129 -1.97774 -15.9473 -90.0662 -22.2096 70.1468 29.3595 -12.7488 -62.6076 15.5069 35.2439 -23.3662 -11.6973 0.898939 -16.5127 57.3824 9.40341 6.71417 -11.085 4.12135 1.14965 
-223.313 78.3346 -198.598 23.4976 -48.7853 30.7541 -145.097 63.0294 67.6119 -78.8978 6.59391 -8.48795 100.467 14.3507 -8.12709 33.3074 10.088 -16.6987 -174.248 34.1367 78.0984 -76.5725 -21.8753 -6.28791 66.4713 -3.55814 -1.56267 16.8928 -1.35108 4.94723 0.814941 11.1315 -90.0706 4.61129 1.59959 -0.157361 -7.0587 1.59112 -0.227623 -29.6012 1.57291 0.330775 -9.58859 1.5729 0.330763 84.3089 -25.4874 -120.423 10.7788 -13.9186 -12.6346 6.68912 -39.8602 -12.2355 -3.84746 -1.73753 -18.3881 -89.8726 -24.0606 71.3357 27.7401 -8.68091 -58.7353 23.9065 33.2132 -34.8999 -9.58041 0.84006 -19.0358 58.4806 8.4104 2.16137 -12.1312 6.19778 0.956206 
-218.243 79.0136 -189.388 33.8052 -49.1264 39.7409 -157.617 49.9504 77.5639 -74.0837 8.71038 -7.46882 100.728 14.5953 -8.01221 38.2527 7.86468 -15.521 -170.003 43.9347 77.9852 -96.2336 -7.08969 -3.40231 80.4519 -10.592 -3.1877 10.1174 -2.13099 6.76521 0.0476248 10.9339 -89.8781 5.00443 0.145527 0.235249 -6.66655 0.15574 0.228606 -29.2013 0.0680972 0.268102 -9.18869 0.0681002 0.268104 82.9627 -31.4645 -119.579 23.9269 -17.9074 -0.625103 1.77989 -41.0804 -19.1348 -8.30626 -1.40068 -18.3986 -88.7513 -24.556 73.854 22.2114 -11.5956 -58.0817 39.4802 27.6865 -53.3148 -8.56068 0.815948 -20.9087 58.0917 6.41293 -3.71186 -12.12 8.12918 2.2092 
-212.564 79.1583 -179.721 42.3964 -48.5502 49.914 -164.941 36.4638 85.4009 -67.5129 10.9017 -5.92965 101.586 15.7943 -6.13706 44.6966 6.94224 -17.3583 -171.963 59.645 81.2761 -104.285 4.20578 -1.65189 92.8621 -15.4038 0.317264 16.6471 0.780722 0.916851 -0.481476 10.6023 -90.2186 5.66719 -1.05328 -0.40269 -6.00339 -1.06997 -0.355928 -28.5406 -0.88357 -0.700641 -8.52796 -0.883565 -0.700644 85.84 -30.2074 -114.792 43.2426 -14.6871 20.2419 -9.96935 -37.5745 -32.9683 -17.1109 -0.503298 -18.3406 -86.4978 -20.284 77.1702 15.7404 -15.9571 -61.9568 48.2788 17.602 -66.9983 -3.6824 0.129899 -23.4727 51.8813 6.76454 -5.81755 -8.61117 9.56823 2.71792 
